<!-- Generated by IcoMoon.io -->
<svg version="1.1" xmlns="http://www.w3.org/2000/svg" width="32" height="32" viewBox="0 0 32 32">
<title>note</title>
<path d="M30.559 1.853c-0.039-0.616-0.571-1.011-1.184-1.011h-27.469c-0.613 0-1.092 0.394-1.063 1.011 0 0 0.506 10.999 0.506 15.060 0 4.059-0.499 13.408-0.499 13.408-0.033 0.617 0.443 0.836 1.056 0.836h14.957c0.613 0 1.608 0.009 1.608-0.609v-10.362c0-0.618 0.008-1.379 0.619-1.379h10.285c0.613 0 1.299-0.341 1.526-0.915 0 0 0.258-0.533 0.258-3.579s-0.6-12.46-0.6-12.46zM14.212 20.847c-0.559 0.252-1.519 0.205-2.131 0.205h-4.116c-0.613 0-1.572 0.046-2.131-0.205 0 0-0.653-0.169-0.653-1.1s0.654-1.416 0.654-1.416c0.558-0.251 1.518-0.648 2.131-0.648h4.116c0.613 0 1.572 0.459 2.131 0.712 0 0 0.653 0.296 0.653 1.224 0.001 0.931-0.653 1.227-0.653 1.227zM26.053 15.017c-0.559 0.251-1.519 0.421-2.131 0.421h-15.957c-0.613 0-1.572-0.17-2.131-0.421 0 0-0.654-0.278-0.654-1.208s0.653-1.254 0.653-1.254c0.559-0.251 1.519-0.486 2.131-0.486h15.956c0.613 0 1.572 0.243 2.131 0.496 0 0 0.653 0.294 0.653 1.225 0.001 0.93-0.653 1.226-0.653 1.226zM26.053 8.52c-0.559 0.253-1.519 0.182-2.131 0.182h-15.957c-0.613 0-1.572 0.071-2.131-0.182 0 0-0.653-0.157-0.653-1.088s0.654-1.433 0.654-1.433c0.558-0.251 1.518-0.666 2.131-0.666h15.956c0.613 0 1.572 0.483 2.131 0.736 0 0 0.653 0.296 0.653 1.225s-0.653 1.226-0.653 1.226zM29.375 22.175h-6.941c-0.613 0-0.621 0.76-0.621 1.379v6.995c0 0.616 0.165 0.834 0.669 0.482 0 0 2.244-1.656 4.132-3.56s3.312-4.24 3.312-4.24c0.344-0.512 0.062-1.057-0.551-1.057z"></path>
</svg>
